<svg width="176px" height="176px" viewBox="-2 -2 24.00 24.00" xmlns="http://www.w3.org/2000/svg" fill="#fafafa" stroke="#fafafa" stroke-width="0.0002"><g id="SVGRepo_bgCarrier" stroke-width="0" transform="translate(0,0), scale(1)"><rect x="-2" y="-2" width="24.00" height="24.00" rx="0" fill="#52a5ff" strokewidth="0"></rect></g><g id="SVGRepo_tracerCarrier" stroke-linecap="round" stroke-linejoin="round" stroke="#CCCCCC" stroke-width="0.04"></g><g id="SVGRepo_iconCarrier"> <rect x="0" fill="none" width="20" height="20"></rect> <g> <path d="M2.5 18h3V6.9h-3V18zM4 2c-1 0-1.8.8-1.8 1.8S3 5.6 4 5.6s1.8-.8 1.8-1.8S5 2 4 2zm6.6 6.6V6.9h-3V18h3v-5.7c0-3.2 4.1-3.4 4.1 0V18h3v-6.8c0-5.4-5.7-5.2-7.1-2.6z"></path> </g> </g></svg>