<svg version="1.1" id="Layer_1" xmlns="http://www.w3.org/2000/svg" xmlns:xlink="http://www.w3.org/1999/xlink" x="0px" y="0px"
	 width="100%" viewBox="0 0 512 500" enable-background="new 0 0 512 500" xml:space="preserve">
<path fill="#E22127" opacity="1.000000" stroke="none" 
	d="
M211.000000,1.000000 
	C238.687561,1.000000 266.375122,1.000000 294.622437,1.356553 
	C296.800415,2.135389 298.418671,2.557674 300.390839,3.108980 
	C313.032501,6.636246 325.594116,9.283075 337.534180,13.635212 
	C350.566254,18.385382 363.022644,24.714933 375.821228,30.184006 
	C375.912445,30.011978 375.709015,30.344614 375.866882,30.621452 
	C377.356476,31.556713 378.688141,32.215137 380.156738,33.004318 
	C380.293640,33.135075 380.664825,33.209476 380.851074,33.498383 
	C384.023224,35.535316 387.009125,37.283344 390.078979,39.144894 
	C390.162994,39.258411 390.441589,39.304756 390.607513,39.556866 
	C391.140289,39.952171 391.507111,40.095364 392.012634,40.432281 
	C392.406677,40.829884 392.696503,40.952065 393.164368,41.252785 
	C393.834442,41.757908 394.360992,42.002792 395.020142,42.441227 
	C395.400330,42.844601 395.685852,42.962261 396.152069,43.266304 
	C397.177429,44.056625 398.060089,44.568398 398.963989,45.038887 
	C398.985229,44.997601 398.923401,45.067448 399.083191,45.360386 
	C401.831604,47.442986 404.420197,49.232647 407.084412,51.139542 
	C407.159973,51.256775 407.432098,51.318233 407.559143,51.586342 
	C408.037933,52.013088 408.389709,52.171730 408.788025,52.176605 
	C408.834564,52.022842 408.711945,52.320095 408.835907,52.614666 
	C410.167328,53.752895 411.374756,54.596554 412.685486,55.372337 
	C412.788757,55.304462 412.617920,55.483120 412.745026,55.782433 
	C421.806274,64.488136 430.740448,72.894539 439.794434,81.162231 
	C439.914307,81.023521 439.682556,81.299179 439.733643,81.553375 
	C440.063660,81.989120 440.342651,82.170670 440.783020,82.255859 
	C440.944397,82.159500 440.639618,82.379745 440.676941,82.615257 
	C440.858551,83.164871 441.100067,83.356514 441.455566,83.448578 
	C441.472382,83.471458 441.506409,83.516953 441.589233,83.783569 
	C442.092834,84.389908 442.513641,84.729622 442.967285,85.036011 
	C443.000092,85.002701 442.926971,85.060394 442.985687,85.355331 
	C443.620819,86.177414 444.197235,86.704567 444.865295,87.159866 
	C444.956970,87.088028 444.752350,87.199257 444.807129,87.455124 
	C445.137207,87.905800 445.412506,88.100616 445.792816,88.249039 
	C445.897797,88.202652 445.710083,88.334763 445.806305,88.655502 
	C448.929535,92.660278 451.956573,96.344322 454.993347,100.014816 
	C455.003143,100.001266 454.972229,100.012672 455.016266,100.326553 
	C455.628235,101.243713 456.196167,101.846992 456.809113,102.606850 
	C456.854126,102.763428 457.119843,102.952065 457.169891,103.287766 
	C458.815979,105.747047 460.411987,107.870613 462.003998,109.997086 
	C462.000000,110.000000 462.006866,109.992393 462.024200,110.309357 
	C462.696991,111.416832 463.352417,112.207329 464.003937,112.998611 
	C464.000000,112.999390 464.003632,112.992058 464.052002,113.342117 
	C469.971405,124.198502 475.842407,134.704819 481.855530,145.145096 
	C481.997620,145.079056 481.715027,145.223053 481.725311,145.599823 
	C487.019409,161.861420 492.873260,177.586578 497.383759,193.688049 
	C500.317963,204.162537 501.296356,215.184891 503.101929,226.359436 
	C503.153687,227.817795 503.254547,228.878510 503.251099,230.400940 
	C503.222595,243.262970 503.298340,255.663315 503.286957,268.454468 
	C503.188782,269.909515 503.177734,270.973694 502.972717,272.383179 
	C502.613098,273.711395 502.392181,274.688599 502.289795,275.678070 
	C499.137299,306.140564 490.626068,335.017548 476.671722,362.282532 
	C474.025726,367.452484 471.322662,372.593262 468.769501,377.802094 
	C468.893066,377.856689 468.668488,377.706482 468.381714,377.867279 
	C466.589264,380.566132 465.083588,383.104187 463.724915,385.836487 
	C463.871979,386.030731 463.563263,385.651306 463.306671,385.797821 
	C462.730713,386.637512 462.411377,387.330688 461.958069,388.126892 
	C461.824127,388.229919 461.734375,388.555786 461.450745,388.697083 
	C460.776825,389.556702 460.386566,390.275024 459.870331,391.084351 
	C459.744324,391.175323 459.667694,391.476562 459.389526,391.631378 
	C458.740570,392.524323 458.369812,393.262451 457.781189,394.145081 
	C457.307922,394.737976 457.052551,395.186340 456.514954,395.771423 
	C455.831757,396.612915 455.430756,397.317657 455.014282,398.011841 
	C454.998779,398.001221 455.025269,398.028900 454.740936,398.156250 
	C453.928528,399.156525 453.400421,400.029388 452.930206,400.944458 
	C452.988068,400.986633 452.889740,400.882477 452.593292,401.022369 
	C451.164825,402.750610 450.032806,404.338928 448.942932,405.951691 
	C448.985107,405.976105 448.930145,405.895599 448.686401,405.990662 
	C448.302094,406.392426 448.161469,406.699127 447.893188,407.093384 
	C447.765533,407.180969 447.663666,407.473358 447.364594,407.618774 
	C446.015411,409.163940 444.965332,410.563721 443.703674,412.082031 
	C443.232849,412.416473 443.069000,412.689606 442.696655,413.153625 
	C434.115295,421.649933 425.837799,430.012543 417.516296,438.393555 
	C417.472290,438.411926 417.419800,438.491608 417.118439,438.596741 
	C415.430511,440.002258 414.043945,441.302673 412.788544,442.715424 
	C412.919678,442.827728 412.634613,442.632904 412.401184,442.670929 
	C411.859100,442.851166 411.663666,443.087128 411.541046,443.429993 
	C411.500580,443.443146 411.444580,443.507263 411.144836,443.596130 
	C409.783813,444.657043 408.722504,445.629059 407.802612,446.765564 
	C407.944031,446.930084 407.665405,446.606476 407.382019,446.667175 
	C406.707672,447.130493 406.316711,447.533081 405.959229,447.967621 
	C405.992706,447.999542 405.942017,447.922394 405.604340,447.992981 
	C401.423584,450.948730 397.580505,453.833954 393.805664,456.812317 
	C393.873932,456.905518 393.779144,456.694794 393.463104,456.739258 
	C392.342834,457.426392 391.538574,458.069061 390.808716,458.810547 
	C390.883087,458.909393 390.773438,458.687653 390.420013,458.733398 
	C389.207703,459.286407 388.337769,459.776031 387.491455,460.303528 
	C349.681763,483.869476 308.665558,497.214081 263.570190,498.999390 
	C259.696747,498.963226 256.277130,498.818604 252.886490,499.067871 
	C251.882401,499.141632 250.959900,500.325073 250.000000,501.000000 
	C246.307098,501.000000 242.614182,501.000000 238.092529,500.777039 
	C236.118393,499.952759 235.011505,498.920441 233.821899,498.814148 
	C213.247620,496.975952 193.008301,493.393311 173.507462,486.492798 
	C162.581421,482.626526 151.931549,477.979828 140.982086,473.490387 
	C140.317215,473.132660 139.827484,472.969330 139.154510,472.531036 
	C137.973114,471.852142 136.974930,471.448212 135.882645,470.925903 
	C135.788528,470.807495 135.486542,470.789703 135.324371,470.540161 
	C134.790283,470.192017 134.418396,470.093475 133.939270,469.864929 
	C133.832031,469.734955 133.500000,469.677307 133.298401,469.401245 
	C130.410538,467.727875 127.724266,466.330566 125.024414,464.966583 
	C125.010834,464.999908 125.064964,464.952454 124.895401,464.668701 
	C123.171967,463.560120 121.618111,462.735260 120.037407,461.953583 
	C120.010559,461.996796 120.084152,461.926361 119.939835,461.661194 
	C119.246651,461.173706 118.697792,460.951355 118.147339,460.775879 
	C118.145737,460.822754 118.236732,460.799988 118.125900,460.554321 
	C117.685829,460.197021 117.356598,460.085419 117.014618,459.986847 
	C117.001877,459.999878 117.020454,459.969635 116.869125,459.696411 
	C115.816277,458.949310 114.914757,458.475433 114.008621,457.997711 
	C114.004013,457.993896 113.993195,457.989136 113.831673,457.703186 
	C111.791115,456.264679 109.912079,455.112122 108.017014,453.980347 
	C108.000992,454.001160 108.038742,453.963654 107.906128,453.696075 
	C107.241592,453.189392 106.709679,452.950287 106.162674,452.769287 
	C106.147583,452.827362 106.242012,452.753204 106.101486,452.460480 
	C104.323380,451.085510 102.685806,450.003296 101.029770,448.957153 
	C101.011299,448.993256 101.076874,448.945587 100.947449,448.659088 
	C100.288582,448.060791 99.759140,447.748993 99.128044,447.272339 
	C98.835136,446.911987 98.602776,446.812073 98.211197,446.518188 
	C97.398499,445.813202 96.703918,445.397766 96.004883,444.991760 
	C96.000420,445.001221 96.018150,444.988495 95.907333,444.711823 
	C95.292023,444.155975 94.787514,443.876770 94.247726,443.699921 
	C94.212456,443.802277 94.338127,443.625946 94.209373,443.329773 
	C92.044556,441.431946 90.008499,439.830292 87.824448,437.996857 
	C87.233078,437.451569 86.789703,437.138031 86.237000,436.554718 
	C85.796814,436.103302 85.465942,435.921661 85.039551,435.537720 
	C84.751221,435.086029 84.498901,434.938293 84.089172,434.599670 
	C83.332344,433.860992 82.673409,433.414825 82.007599,432.985901 
	C82.000732,433.003082 82.031700,432.982391 81.933731,432.714722 
	C81.377419,432.135101 80.919083,431.823151 80.346626,431.567474 
	C80.232506,431.623718 80.429672,431.462860 80.331253,431.182953 
	C79.471680,430.295624 78.710541,429.688202 77.969528,429.046356 
	C77.989662,429.011902 77.919640,429.050171 77.842972,428.774536 
	C77.310417,428.180786 76.854523,427.862610 76.285172,427.589783 
	C76.171715,427.635071 76.405228,427.528778 76.311897,427.256714 
	C75.629120,426.523010 75.039680,426.061371 74.326485,425.709351 
	C74.202736,425.818939 74.441002,425.607880 74.362381,425.335632 
	C73.841141,424.741058 73.398521,424.418762 72.965500,424.061646 
	C72.975090,424.026855 72.904770,424.043213 72.821999,423.742859 
	C71.821541,422.632629 70.903854,421.822754 69.993088,421.006470 
	C70.000000,421.000000 69.985283,421.011719 69.932373,420.753418 
	C69.585197,420.329285 69.290939,420.163483 68.998032,419.998962 
	C68.999390,420.000244 69.002319,420.003296 68.923874,419.677551 
	C66.683922,417.121277 64.522423,414.890778 62.186478,412.715942 
	C62.012035,412.771545 62.367622,412.687134 62.322823,412.430664 
	C62.006519,411.976501 61.735020,411.778809 61.247723,411.621033 
	C61.031929,411.660980 61.460247,411.557220 61.369553,411.238098 
	C59.937176,409.445221 58.595497,407.971466 57.209793,406.341705 
	C57.165768,406.185699 56.891064,406.013580 56.826096,405.699280 
	C55.639561,404.139465 54.517994,402.893982 53.203499,401.750336 
	C53.010571,401.852203 53.407459,401.672089 53.347778,401.361206 
	C52.607998,400.284424 51.927902,399.518494 51.195137,398.795166 
	C51.142464,398.837708 51.276131,398.815979 51.219746,398.520447 
	C50.862602,397.973907 50.561848,397.722900 50.230682,397.324341 
	C50.200272,397.176727 49.946800,397.013672 49.893318,396.697235 
	C48.907326,395.236694 47.974819,394.092560 47.019890,392.970490 
	C46.997467,392.992523 47.055573,392.969238 47.026558,392.700745 
	C46.734741,392.207489 46.471943,391.982697 46.185440,391.802307 
	C46.161739,391.846710 46.260197,391.825531 46.200798,391.525452 
	C45.852108,390.950012 45.562813,390.674652 45.259636,390.267883 
	C45.245750,390.136505 45.020058,389.999023 44.961933,389.665619 
	C43.610226,387.542480 42.316639,385.752777 41.009060,383.978729 
	C40.995068,383.994415 41.034691,383.982178 41.005920,383.666748 
	C40.349136,382.535431 39.721123,381.719513 39.051449,380.936737 
	C39.009789,380.969879 39.110802,380.936310 39.081444,380.644348 
	C38.792343,380.074677 38.532600,379.796906 38.238426,379.357239 
	C38.203995,379.195282 37.947323,378.986053 37.911926,378.653137 
	C36.992905,377.047607 36.109283,375.774963 35.211620,374.354309 
	C35.197582,374.206329 34.959797,374.027802 34.935024,373.678162 
	C33.610046,371.212952 32.309837,369.097351 31.003420,366.989868 
	C30.997208,366.997925 31.015453,366.994690 31.021145,366.658752 
	C30.427128,365.396210 29.827417,364.469604 29.196743,363.296326 
	C28.907900,362.632324 28.650023,362.214966 28.367407,361.472412 
	C27.879631,360.438080 27.416595,359.728973 26.921146,358.732239 
	C26.580416,357.966095 26.272100,357.487671 25.965811,356.644104 
	C24.806955,353.958527 23.646070,351.638092 22.509296,349.198242 
	C22.533403,349.078857 22.330347,348.944305 22.320692,348.553406 
	C11.208577,321.856476 4.366508,294.526794 2.440910,265.994598 
	C2.237306,262.977753 1.493298,259.997314 0.999999,257.000000 
	C1.000000,251.977905 1.000000,246.955811 1.367989,241.284515 
	C1.861416,239.818802 2.059103,239.006042 2.101797,238.185242 
	C3.390411,213.411682 7.407652,189.102783 16.393015,165.934296 
	C21.915504,151.694733 28.782118,137.976440 35.020218,124.016273 
	C34.995247,124.008453 35.032490,124.045746 35.312325,123.871635 
	C36.397327,122.141472 37.202496,120.585419 38.011871,119.021240 
	C38.016087,119.013115 38.027210,118.998581 38.287094,118.855743 
	C38.755241,118.175697 38.963497,117.638489 39.102341,117.071442 
	C39.032928,117.041611 39.151268,117.135574 39.413445,116.995758 
	C39.905602,116.322906 40.135582,115.789879 40.220085,115.188004 
	C40.074615,115.119171 40.347095,115.290535 40.614376,115.132385 
	C41.365341,114.074265 41.849022,113.174301 42.175903,112.133972 
	C42.019100,111.993614 42.338734,112.269379 42.615005,112.100586 
	C44.031460,110.033638 45.171638,108.135475 46.184029,106.156723 
	C46.056236,106.076141 46.291622,106.265633 46.582108,106.122360 
	C47.925529,104.320435 48.978470,102.661774 50.151730,100.921654 
	C50.272049,100.840187 50.330143,100.555435 50.597137,100.425446 
	C51.021820,99.944489 51.179512,99.593529 51.229385,99.224144 
	C51.121559,99.205727 51.321949,99.293495 51.595520,99.169632 
	C52.253872,98.368149 52.638653,97.690521 53.010857,97.006721 
	C52.998276,97.000549 53.015331,97.023605 53.321297,96.887405 
	C63.840309,85.550842 74.053352,74.350487 84.467590,63.076286 
	C84.926025,62.847130 85.098618,62.625801 85.458572,62.264915 
	C85.929008,61.885803 86.127426,61.580235 86.238396,61.225464 
	C86.150940,61.176262 86.288628,61.322262 86.543274,61.264671 
	C86.989838,60.930237 87.181763,60.653397 87.232147,60.208313 
	C87.090607,60.040073 87.380653,60.379333 87.623184,60.326077 
	C88.182571,60.103107 88.367310,59.840477 88.367981,59.341022 
	C88.316025,59.197113 88.465233,59.464275 88.788712,59.373016 
	C94.858246,54.665447 100.604294,50.049133 106.204391,45.243401 
	C106.058449,45.053982 106.368629,45.418098 106.699646,45.345161 
	C108.817894,43.922382 110.605125,42.572540 112.563690,41.175900 
	C112.735031,41.129105 112.974243,40.866508 113.315277,40.816330 
	C119.662529,37.004311 125.668755,33.242477 131.922302,29.426655 
	C132.440811,29.176966 132.711990,28.981264 133.336563,28.764881 
	C157.305069,16.413593 182.032410,7.286234 208.356537,2.708014 
	C209.307938,2.542547 210.121948,1.587217 211.000000,1.000000 
M314.936493,98.433128 
	C322.490295,87.597633 330.044067,76.762138 337.674469,65.816750 
	C254.011368,25.700735 137.333405,48.424011 79.003326,145.422073 
	C22.747829,238.970276 54.750858,348.226013 120.746048,401.641785 
	C121.726845,400.302246 122.725403,398.994232 123.665871,397.645721 
	C146.157883,365.395172 168.603973,333.112305 191.234039,300.958954 
	C192.523483,299.126892 195.302582,297.266754 197.399597,297.253906 
	C211.225937,297.169250 225.055527,297.578827 238.883347,297.862518 
	C239.786514,297.881042 240.683685,298.192047 242.403488,298.526367 
	C212.610977,341.027954 183.231262,382.940674 153.279785,425.669067 
	C218.406647,458.722046 283.742218,462.051666 347.473328,427.324524 
	C423.515320,385.889191 459.777588,319.609344 454.569672,233.056000 
	C450.885681,171.830078 421.430084,123.385048 372.867065,85.944809 
	C371.281555,88.071861 370.251434,89.375687 369.303589,90.736786 
	C347.596313,121.907928 325.856537,153.056686 304.260437,184.304733 
	C302.033112,187.527496 299.707886,188.918152 295.690857,188.710480 
	C286.210785,188.220367 276.704224,188.222092 267.207581,188.080261 
	C262.627533,188.011856 258.045563,188.068466 252.020477,188.068466 
	C273.458252,157.522110 293.988251,128.269226 314.936493,98.433128 
M42.995586,150.500122 
	C42.995636,156.662811 43.298702,162.845169 42.900005,168.981949 
	C42.580151,173.905243 44.377541,175.728668 49.123821,175.018219 
	C49.938477,174.896286 50.798843,174.907608 51.617615,175.014389 
	C55.681915,175.544418 57.192127,173.964874 57.089092,169.735123 
	C56.833630,159.248123 57.068691,148.750229 56.985928,138.257660 
	C56.905655,128.080902 58.603130,129.150208 47.629322,128.944656 
	C44.226887,128.880905 42.797489,129.960358 42.941811,133.512848 
	C43.157986,138.833908 42.996460,144.170334 42.995586,150.500122 
z"/>
<path fill="#E7E5E5" opacity="1.000000" stroke="none" 
	d="
M300.036926,2.979956 
	C298.418671,2.557674 296.800415,2.135389 295.091064,1.356553 
	C367.633209,1.000000 440.266388,1.000000 512.949829,1.000000 
	C512.949829,167.556412 512.949829,334.112854 512.949829,501.000000 
	C435.979431,501.000000 358.958374,501.000000 281.713257,500.701782 
	C282.086395,499.936310 282.628815,499.169769 283.289490,499.048706 
	C289.147461,497.975403 295.019257,496.972046 300.900269,496.031311 
	C328.801941,491.568146 354.370209,480.730957 378.925171,467.251190 
	C383.164154,464.924164 386.838379,461.568298 390.773438,458.687653 
	C390.773438,458.687653 390.883087,458.909393 391.152405,458.862854 
	C392.207520,458.109131 392.993347,457.401978 393.779175,456.694824 
	C393.779144,456.694794 393.873932,456.905518 394.173828,456.856110 
	C398.296448,453.845245 402.119232,450.883820 405.942017,447.922394 
	C405.942017,447.922394 405.992706,447.999542 406.269226,447.956177 
	C406.918976,447.477386 407.292206,447.041931 407.665405,446.606476 
	C407.665405,446.606476 407.944031,446.930084 408.156708,446.823517 
	C409.394440,445.647034 410.419495,444.577148 411.444580,443.507263 
	C411.444580,443.507263 411.500580,443.443146 411.802673,443.450256 
	C412.281372,443.182556 412.458008,442.907745 412.634644,442.632935 
	C412.634613,442.632904 412.919678,442.827728 413.143860,442.773254 
	C414.718597,441.309723 416.069183,439.900635 417.419800,438.491577 
	C417.419800,438.491608 417.472290,438.411926 417.865417,438.516663 
	C419.014740,438.345917 419.975372,438.277588 420.496277,437.763580 
	C427.592255,430.761932 434.665924,423.736206 441.626007,416.600220 
	C442.445892,415.759583 442.559540,414.230133 443.000549,413.019989 
	C443.069000,412.689606 443.232849,412.416473 444.065186,412.047119 
	C445.646759,410.420197 446.655212,408.946777 447.663635,407.473358 
	C447.663666,407.473358 447.765533,407.180969 448.121643,406.980499 
	C448.628540,406.485229 448.779358,406.190430 448.930176,405.895599 
	C448.930145,405.895599 448.985107,405.976105 449.299530,405.918213 
	C450.705872,404.201050 451.797821,402.541748 452.889740,400.882477 
	C452.889740,400.882477 452.988068,400.986633 453.269562,400.901245 
	C454.042450,399.886871 454.533844,398.957886 455.025269,398.028900 
	C455.025269,398.028900 454.998779,398.001221 455.344055,397.935608 
	C456.058624,397.124878 456.427887,396.379791 456.797180,395.634705 
	C457.052551,395.186340 457.307922,394.737976 458.122314,394.066132 
	C459.010132,393.053955 459.338928,392.265259 459.667694,391.476562 
	C459.667694,391.476562 459.744324,391.175323 460.207947,391.012268 
	C461.025848,390.084717 461.380127,389.320251 461.734375,388.555786 
	C461.734375,388.555786 461.824127,388.229919 462.278778,388.051636 
	C463.010040,387.132660 463.286652,386.391968 463.563263,385.651306 
	C463.563263,385.651306 463.871979,386.030731 464.078430,385.806396 
	C465.746094,382.956879 467.207306,380.331696 468.668488,377.706482 
	C468.668488,377.706482 468.893066,377.856689 469.120850,377.736023 
	C470.192902,376.638306 471.231293,375.770660 471.853149,374.668152 
	C488.370605,345.383148 498.837036,314.027252 503.650482,280.787903 
	C504.060883,277.954010 503.354340,274.958405 503.166687,272.037903 
	C503.177734,270.973694 503.188782,269.909515 503.621094,268.277527 
	C504.332367,266.962311 504.870605,266.216339 504.874969,265.467194 
	C504.937744,254.728363 504.974640,243.988663 504.867340,233.250656 
	C504.856262,232.141922 503.882446,231.042816 503.355377,229.939240 
	C503.254547,228.878510 503.153687,227.817795 503.340027,226.037933 
	C503.674072,222.683929 504.129944,219.980698 503.702820,217.425034 
	C500.408295,197.713455 496.342865,178.170120 488.873108,159.540787 
	C486.894012,154.605042 484.122650,149.986969 481.715027,145.223053 
	C481.715027,145.223053 481.997620,145.079056 481.929077,144.762207 
	C476.638397,134.304062 471.437439,124.151688 466.138336,114.050766 
	C465.839600,113.481293 464.733826,113.335197 464.003632,112.992058 
	C464.003632,112.992058 464.000000,112.999390 464.016998,112.654297 
	C463.358276,111.536934 462.682556,110.764671 462.006866,109.992401 
	C462.006866,109.992393 462.000000,110.000000 462.021576,109.634338 
	C460.402039,107.163139 458.760956,105.057602 457.119843,102.952065 
	C457.119843,102.952065 456.854126,102.763428 456.833374,102.257202 
	C456.199127,101.171555 455.585663,100.592117 454.972229,100.012680 
	C454.972229,100.012672 455.003143,100.001266 455.009674,99.648087 
	C451.914154,95.641518 448.812134,91.988136 445.710083,88.334763 
	C445.710083,88.334763 445.897797,88.202652 445.753418,87.985168 
	C445.323486,87.578209 445.037903,87.388733 444.752350,87.199257 
	C444.752350,87.199257 444.956970,87.088028 444.875488,86.828247 
	C444.171692,86.065765 443.549347,85.563072 442.927002,85.060379 
	C442.926971,85.060394 443.000092,85.002701 442.946228,84.727272 
	C442.430389,84.140213 441.968384,83.828583 441.506409,83.516953 
	C441.506409,83.516953 441.472382,83.471458 441.471069,83.186218 
	C441.193054,82.727234 440.916321,82.553490 440.639618,82.379745 
	C440.639618,82.379745 440.944397,82.159500 440.754181,81.988571 
	C440.270172,81.644821 439.976349,81.472000 439.682556,81.299179 
	C439.682556,81.299179 439.914307,81.023521 439.835266,80.806046 
	C432.775085,73.384041 425.879303,66.093185 418.748169,59.040359 
	C417.122345,57.432377 414.682892,56.647072 412.617920,55.483120 
	C412.617920,55.483120 412.788757,55.304462 412.662170,55.019047 
	C411.261078,53.929115 409.986511,53.124599 408.711945,52.320091 
	C408.711945,52.320095 408.834564,52.022842 408.674438,51.894951 
	C408.153564,51.617455 407.792816,51.467846 407.432098,51.318237 
	C407.432098,51.318233 407.159973,51.256775 407.036316,50.793461 
	C404.249573,48.575916 401.586487,46.821682 398.923401,45.067448 
	C398.923401,45.067448 398.985229,44.997601 398.907684,44.702499 
	C397.889893,43.934181 396.949615,43.460968 396.009369,42.987755 
	C395.685852,42.962261 395.400330,42.844601 394.903076,42.156883 
	C394.109192,41.450176 393.565002,41.221359 393.020782,40.992542 
	C392.696503,40.952065 392.406677,40.829884 391.864258,40.161736 
	C391.198669,39.566563 390.820129,39.435665 390.441589,39.304760 
	C390.441589,39.304756 390.162994,39.258411 390.029877,38.797432 
	C386.819458,36.627460 383.742126,34.918468 380.664825,33.209476 
	C380.664825,33.209476 380.293640,33.135075 380.094116,32.654137 
	C378.499420,31.563671 377.104218,30.954138 375.709015,30.344610 
	C375.709015,30.344614 375.912445,30.011978 375.758026,29.836327 
	C373.861511,28.453278 372.224823,27.044277 370.360992,26.069780 
	C352.413208,16.685860 333.508026,9.717268 313.999390,4.443655 
	C309.539246,3.237987 304.701111,3.430786 300.036926,2.979956 
z"/>
<path fill="#E7E5E5" opacity="1.000000" stroke="none" 
	d="
M135.486542,470.789703 
	C135.486542,470.789703 135.788528,470.807495 135.979553,471.271301 
	C137.226303,472.092072 138.282028,472.449036 139.337753,472.806000 
	C139.827484,472.969330 140.317215,473.132660 141.075562,473.832642 
	C147.519073,477.477203 153.488373,481.118927 159.907959,483.591614 
	C178.218613,490.644501 197.169342,495.379578 216.628601,498.100983 
	C218.844208,498.410858 220.880539,500.002625 223.000000,501.000000 
	C149.071991,501.000000 75.143982,501.000000 1.000000,501.000000 
	C1.000000,425.312561 1.000000,349.624939 1.268963,273.775757 
	C3.709217,295.616455 8.934565,316.919739 16.510685,337.643738 
	C17.954096,341.592102 20.365541,345.186554 22.330353,348.944305 
	C22.330347,348.944305 22.533403,349.078857 22.385260,349.601440 
	C23.479338,352.419098 24.721560,354.714172 25.963783,357.009216 
	C26.272100,357.487671 26.580416,357.966095 26.721771,358.938904 
	C27.167259,360.221375 27.779709,361.009491 28.392151,361.797638 
	C28.650023,362.214966 28.907900,362.632324 29.132183,363.673126 
	C29.737545,365.195953 30.376501,366.095337 31.015455,366.994690 
	C31.015453,366.994690 30.997208,366.997925 30.977848,367.369446 
	C32.292259,369.836548 33.626026,371.932190 34.959797,374.027802 
	C34.959797,374.027802 35.197582,374.206329 35.172462,374.729980 
	C36.080666,376.497803 37.013992,377.741913 37.947319,378.986053 
	C37.947323,378.986053 38.203995,379.195282 38.259529,379.651154 
	C38.580311,380.383453 38.845566,380.659882 39.110809,380.936310 
	C39.110802,380.936310 39.009789,380.969879 39.017944,381.288269 
	C39.695629,382.398468 40.365162,383.190338 41.034691,383.982178 
	C41.034691,383.982178 40.995068,383.994415 41.028519,384.342316 
	C42.381329,386.459839 43.700691,388.229431 45.020054,389.999023 
	C45.020058,389.999023 45.245750,390.136505 45.296928,390.580505 
	C45.652142,391.291504 45.956173,391.558502 46.260201,391.825531 
	C46.260197,391.825531 46.161739,391.846710 46.223083,392.064819 
	C46.541470,392.511719 46.798512,392.740479 47.055565,392.969238 
	C47.055573,392.969238 46.997467,392.992523 46.994568,393.329803 
	C47.976711,394.782623 48.961758,395.898132 49.946800,397.013672 
	C49.946800,397.013672 50.200272,397.176727 50.275185,397.627258 
	C50.658772,398.323883 50.967449,398.569916 51.276131,398.815979 
	C51.276131,398.815979 51.142464,398.837708 51.156338,399.143494 
	C51.915962,400.190216 52.661713,400.931152 53.407463,401.672089 
	C53.407459,401.672089 53.010571,401.852203 53.131554,402.101746 
	C54.465382,403.572052 55.678226,404.792816 56.891068,406.013580 
	C56.891064,406.013580 57.165768,406.185699 57.174477,406.712952 
	C58.608875,408.679199 60.034561,410.118195 61.460251,411.557220 
	C61.460247,411.557220 61.031929,411.660980 61.256905,411.897705 
	C61.777130,412.318695 62.072376,412.502899 62.367622,412.687134 
	C62.367622,412.687134 62.012035,412.771545 62.124607,413.074829 
	C64.492226,415.586517 66.747276,417.794891 69.002319,420.003296 
	C69.002319,420.003296 68.999390,420.000244 69.081985,420.236023 
	C69.438141,420.651794 69.711708,420.831757 69.985275,421.011719 
	C69.985283,421.011719 70.000000,421.000000 69.991638,421.361694 
	C70.957108,422.496643 71.930946,423.269928 72.904770,424.043213 
	C72.904770,424.043213 72.975090,424.026855 73.008377,424.361328 
	C73.508110,424.999817 73.974548,425.303864 74.440994,425.607910 
	C74.441002,425.607880 74.202736,425.818939 74.269676,426.063171 
	C75.026154,426.714539 75.715691,427.121674 76.405228,427.528778 
	C76.405228,427.528778 76.171715,427.635071 76.306641,427.896240 
	C76.934258,428.454987 77.426949,428.752563 77.919640,429.050171 
	C77.919640,429.050171 77.989662,429.011902 77.980949,429.403748 
	C78.791382,430.351318 79.610527,430.907104 80.429672,431.462860 
	C80.429672,431.462860 80.232506,431.623718 80.369278,431.878479 
	C81.014603,432.416290 81.523155,432.699341 82.031700,432.982391 
	C82.031700,432.982391 82.000732,433.003082 82.061562,433.311951 
	C82.810616,434.044617 83.498840,434.468384 84.187065,434.892151 
	C84.498901,434.938293 84.751221,435.086029 85.145309,435.809784 
	C85.679832,436.464264 86.013092,436.644379 86.346336,436.824493 
	C86.789703,437.138031 87.233078,437.451569 87.872169,438.324921 
	C90.157967,440.465149 92.248055,442.045532 94.338135,443.625946 
	C94.338127,443.625946 94.212456,443.802277 94.319695,444.005341 
	C94.957344,444.468414 95.487747,444.728455 96.018158,444.988495 
	C96.018150,444.988495 96.000420,445.001221 96.070892,445.323059 
	C96.870682,446.032532 97.599991,446.420135 98.329308,446.807770 
	C98.602776,446.812073 98.835136,446.911987 99.207397,447.596802 
	C99.951225,448.372620 100.514053,448.659088 101.076874,448.945587 
	C101.076874,448.945587 101.011299,448.993256 101.061722,449.310059 
	C102.822098,450.668945 104.532059,451.711060 106.242020,452.753204 
	C106.242012,452.753204 106.147583,452.827362 106.281464,453.053070 
	C106.956474,453.507080 107.497604,453.735382 108.038742,453.963654 
	C108.038742,453.963654 108.000992,454.001160 108.054123,454.332153 
	C110.069229,455.771820 112.031212,456.880493 113.993195,457.989136 
	C113.993195,457.989136 114.004013,457.993896 114.072983,458.331909 
	C115.101456,459.103180 116.060959,459.536407 117.020462,459.969635 
	C117.020454,459.969635 117.001877,459.999878 117.145035,460.213745 
	C117.604370,460.551727 117.920555,460.675873 118.236732,460.799988 
	C118.236732,460.799988 118.145737,460.822754 118.273041,461.063232 
	C118.961609,461.511261 119.522881,461.718811 120.084152,461.926361 
	C120.084152,461.926361 120.010559,461.996796 120.088120,462.303406 
	C121.798767,463.390839 123.431862,464.171661 125.064964,464.952454 
	C125.064964,464.952454 125.010834,464.999908 125.059959,465.323273 
	C127.906059,466.990173 130.703033,468.333740 133.500000,469.677307 
	C133.500000,469.677307 133.832031,469.734955 134.110596,470.100220 
	C134.754959,470.573547 135.120758,470.681610 135.486542,470.789703 
z"/>
<path fill="#E7E5E5" opacity="1.000000" stroke="none" 
	d="
M50.330143,100.555435 
	C50.330143,100.555435 50.272049,100.840187 49.801941,100.965302 
	C48.318428,102.815491 47.305027,104.540565 46.291622,106.265633 
	C46.291622,106.265633 46.056236,106.076141 45.835602,106.230453 
	C44.522892,108.346306 43.430813,110.307846 42.338734,112.269379 
	C42.338734,112.269379 42.019100,111.993614 41.837681,112.208649 
	C41.219872,113.379303 40.783485,114.334923 40.347095,115.290535 
	C40.347095,115.290535 40.074615,115.119171 39.921005,115.289299 
	C39.562023,116.018143 39.356644,116.576859 39.151268,117.135574 
	C39.151268,117.135574 39.032928,117.041611 38.836220,117.211372 
	C38.435410,117.920280 38.231308,118.459435 38.027206,118.998581 
	C38.027210,118.998581 38.016087,119.013115 37.670303,119.085274 
	C36.560513,120.786873 35.796501,122.416306 35.032494,124.045746 
	C35.032490,124.045746 34.995247,124.008453 34.679741,124.077545 
	C31.766197,128.719864 29.017828,133.215027 26.595737,137.879623 
	C15.114487,159.990875 7.836246,183.469757 3.959295,208.046158 
	C3.065500,213.712067 1.991221,219.349472 0.999999,225.000000 
	C1.000000,150.409348 1.000000,75.818695 1.000000,1.000000 
	C69.354057,1.000000 137.708374,1.000000 206.243042,1.257469 
	C187.314346,5.217279 168.674698,10.518068 150.982010,18.698637 
	C144.758316,21.576284 138.970184,25.396004 132.983185,28.785566 
	C132.711990,28.981264 132.440811,29.176966 131.517731,29.309053 
	C126.755348,31.411354 122.533028,33.394756 118.579575,35.816986 
	C116.471291,37.108707 114.827614,39.158730 112.974243,40.866508 
	C112.974243,40.866508 112.735031,41.129105 112.190689,41.143135 
	C109.887108,42.577477 108.127869,43.997787 106.368629,45.418098 
	C106.368629,45.418098 106.058449,45.053982 105.837997,45.164284 
	C99.900108,50.004478 94.182671,54.734379 88.465233,59.464275 
	C88.465233,59.464275 88.316025,59.197113 88.095108,59.342484 
	C87.709679,59.785015 87.545166,60.082172 87.380653,60.379333 
	C87.380653,60.379333 87.090607,60.040073 86.959213,60.235580 
	C86.648087,60.728146 86.468353,61.025204 86.288628,61.322262 
	C86.288628,61.322262 86.150940,61.176262 85.959412,61.290039 
	C85.574104,61.715363 85.380333,62.026913 85.186562,62.338463 
	C85.098618,62.625801 84.926025,62.847130 84.109558,63.073494 
	C76.083664,70.383263 68.389610,77.406998 61.251381,84.956276 
	C57.947403,88.450508 55.726997,92.969315 53.015335,97.023605 
	C53.015331,97.023605 52.998276,97.000549 52.684418,97.067734 
	C52.021023,97.854439 51.671486,98.573967 51.321949,99.293495 
	C51.321949,99.293495 51.121559,99.205727 50.945770,99.336884 
	C50.623371,99.830498 50.476757,100.192970 50.330143,100.555435 
z"/>
<path fill="#F7BFBE" opacity="1.000000" stroke="none" 
	d="
M390.420013,458.733398 
	C386.838379,461.568298 383.164154,464.924164 378.925171,467.251190 
	C354.370209,480.730957 328.801941,491.568146 300.900269,496.031311 
	C295.019257,496.972046 289.147461,497.975403 283.289490,499.048706 
	C282.628815,499.169769 282.086395,499.936310 281.244568,500.701782 
	C276.643097,501.000000 272.286194,501.000000 267.565979,500.634827 
	C266.146790,499.860229 265.090942,499.450836 264.035095,499.041473 
	C308.665558,497.214081 349.681763,483.869476 387.491455,460.303528 
	C388.337769,459.776031 389.207703,459.286407 390.420013,458.733398 
z"/>
<path fill="#F7BFC1" opacity="1.000000" stroke="none" 
	d="
M0.999999,225.466858 
	C1.991221,219.349472 3.065500,213.712067 3.959295,208.046158 
	C7.836246,183.469757 15.114487,159.990875 26.595737,137.879623 
	C29.017828,133.215027 31.766197,128.719864 34.704712,124.085358 
	C28.782118,137.976440 21.915504,151.694733 16.393015,165.934296 
	C7.407652,189.102783 3.390411,213.411682 2.101797,238.185242 
	C2.059103,239.006042 1.861416,239.818802 1.367989,240.817657 
	C1.000000,235.977905 1.000000,230.955811 0.999999,225.466858 
z"/>
<path fill="#FAC3C6" opacity="1.000000" stroke="none" 
	d="
M223.466125,501.000000 
	C220.880539,500.002625 218.844208,498.410858 216.628601,498.100983 
	C197.169342,495.379578 178.218613,490.644501 159.907959,483.591614 
	C153.488373,481.118927 147.519073,477.477203 141.250702,474.027039 
	C151.931549,477.979828 162.581421,482.626526 173.507462,486.492798 
	C193.008301,493.393311 213.247620,496.975952 233.821899,498.814148 
	C235.011505,498.920441 236.118393,499.952759 237.631897,500.777039 
	C233.310745,501.000000 228.621490,501.000000 223.466125,501.000000 
z"/>
<path fill="#FAC3C6" opacity="1.000000" stroke="none" 
	d="
M22.320698,348.553406 
	C20.365541,345.186554 17.954096,341.592102 16.510685,337.643738 
	C8.934565,316.919739 3.709217,295.616455 1.268963,273.307068 
	C1.000000,267.977905 1.000000,262.955811 0.999999,257.466858 
	C1.493298,259.997314 2.237306,262.977753 2.440910,265.994598 
	C4.366508,294.526794 11.208577,321.856476 22.320698,348.553406 
z"/>
<path fill="#F7BFC1" opacity="1.000000" stroke="none" 
	d="
M133.336563,28.764883 
	C138.970184,25.396004 144.758316,21.576284 150.982010,18.698637 
	C168.674698,10.518068 187.314346,5.217279 206.711700,1.257469 
	C208.066666,1.000000 209.133347,1.000000 210.600006,1.000000 
	C210.121948,1.587217 209.307938,2.542547 208.356537,2.708014 
	C182.032410,7.286234 157.305069,16.413593 133.336563,28.764883 
z"/>
<path fill="#290103" opacity="1.000000" stroke="none" 
	d="
M263.570190,498.999390 
	C265.090942,499.450836 266.146790,499.860229 267.101318,500.634827 
	C261.645081,501.000000 256.290131,501.000000 250.467621,501.000000 
	C250.959900,500.325073 251.882401,499.141632 252.886490,499.067871 
	C256.277130,498.818604 259.696747,498.963226 263.570190,498.999390 
z"/>
<path fill="#FDFCFC" opacity="1.000000" stroke="none" 
	d="
M314.727356,98.724731 
	C293.988251,128.269226 273.458252,157.522110 252.020477,188.068466 
	C258.045563,188.068466 262.627533,188.011856 267.207581,188.080261 
	C276.704224,188.222092 286.210785,188.220367 295.690857,188.710480 
	C299.707886,188.918152 302.033112,187.527496 304.260437,184.304733 
	C325.856537,153.056686 347.596313,121.907928 369.303589,90.736786 
	C370.251434,89.375687 371.281555,88.071861 372.867065,85.944809 
	C421.430084,123.385048 450.885681,171.830078 454.569672,233.056000 
	C459.777588,319.609344 423.515320,385.889191 347.473328,427.324524 
	C283.742218,462.051666 218.406647,458.722046 153.279785,425.669067 
	C183.231262,382.940674 212.610977,341.027954 242.403488,298.526367 
	C240.683685,298.192047 239.786514,297.881042 238.883347,297.862518 
	C225.055527,297.578827 211.225937,297.169250 197.399597,297.253906 
	C195.302582,297.266754 192.523483,299.126892 191.234039,300.958954 
	C168.603973,333.112305 146.157883,365.395172 123.665871,397.645721 
	C122.725403,398.994232 121.726845,400.302246 120.746048,401.641785 
	C54.750858,348.226013 22.747829,238.970276 79.003326,145.422073 
	C137.333405,48.424011 254.011368,25.700735 337.674469,65.816750 
	C330.044067,76.762138 322.490295,87.597633 314.727356,98.724731 
M355.178009,244.499954 
	C355.178802,254.156723 355.155182,263.813568 355.196564,273.470184 
	C355.207703,276.075104 355.104858,278.252289 352.033997,279.494202 
	C350.915527,279.946564 350.034210,282.414795 350.130432,283.892639 
	C350.186127,284.748291 352.392365,286.116211 353.650452,286.138397 
	C363.969971,286.320251 374.294922,286.301392 384.615662,286.157990 
	C385.852814,286.140808 388.075928,285.054810 388.102386,284.394531 
	C388.164276,282.848969 387.338409,281.169922 386.553833,279.716675 
	C385.807434,278.334076 383.875183,277.204712 383.816589,275.903137 
	C383.524963,269.424561 383.586761,262.923401 383.757050,256.436340 
	C383.790375,255.166138 384.852783,253.922974 386.097961,251.262894 
	C390.254120,261.058899 393.831818,269.491455 397.409515,277.923981 
	C396.899658,277.878876 396.389801,277.833771 395.879944,277.788666 
	C394.865204,279.928741 393.850464,282.068848 392.835754,284.208984 
	C394.964691,284.887970 397.079956,286.097595 399.225006,286.152832 
	C407.876984,286.375580 416.539917,286.328583 425.194031,286.149719 
	C426.540161,286.121857 428.956177,284.920532 428.975433,284.210327 
	C429.021210,282.521515 428.184326,280.637909 427.226807,279.137543 
	C426.117706,277.399719 423.959442,276.217102 423.184967,274.398193 
	C416.998810,259.869537 411.010925,245.256058 405.042572,230.635818 
	C404.592926,229.534393 404.175171,227.603409 404.735046,227.034088 
	C409.741852,221.942917 411.721832,213.982407 419.583954,211.490692 
	C420.740356,211.124191 421.774078,208.778641 421.859833,207.290833 
	C421.903351,206.535858 419.734314,204.988663 418.518250,204.938202 
	C412.534698,204.689804 406.531830,204.716995 400.544373,204.911209 
	C399.348083,204.949997 397.479553,205.924072 397.195374,206.855637 
	C396.851990,207.981293 397.599854,209.703110 398.370941,210.826981 
	C399.059814,211.831039 400.422516,212.372818 402.113037,213.556198 
	C396.269135,222.267731 390.577209,230.752686 384.885315,239.237640 
	C384.466339,239.041367 384.047333,238.845093 383.628357,238.648819 
	C383.628357,232.019119 383.740662,225.386703 383.579468,218.760941 
	C383.502594,215.602036 384.310364,213.563049 387.372375,211.989334 
	C388.700684,211.306625 389.251190,208.579208 389.492249,206.695694 
	C389.550629,206.239868 386.990326,204.914810 385.621216,204.895248 
	C375.134216,204.745468 364.642944,204.749359 354.156097,204.910400 
	C352.797913,204.931274 350.293182,206.183563 350.322876,206.762726 
	C350.420166,208.660095 351.344757,210.552399 352.133972,212.367218 
	C353.045837,214.464020 354.947388,216.443802 355.033173,218.531342 
	C355.374695,226.842163 355.176422,235.175156 355.178009,244.499954 
M249.742661,286.251617 
	C259.075104,286.249725 268.408356,286.307220 277.739014,286.177063 
	C279.026337,286.159149 281.101288,285.484985 281.393402,284.630035 
	C281.831787,283.347137 281.543823,280.839935 280.642792,280.241516 
	C276.357208,277.395264 275.695923,272.992462 274.708252,268.591766 
	C270.475800,249.733978 266.203888,230.884995 261.905518,212.042114 
	C260.355774,205.248337 259.782227,204.835220 252.865753,204.821182 
	C244.699890,204.804611 236.532074,204.714615 228.370026,204.888260 
	C226.994049,204.917526 224.684189,205.919937 224.498108,206.821869 
	C224.195496,208.288589 224.825058,210.984909 225.879166,211.505249 
	C229.444336,213.265167 228.849731,215.711609 228.138245,218.630356 
	C223.799103,236.430862 219.642471,254.276840 215.147049,272.037292 
	C214.427567,274.879791 212.242523,277.334076 210.861954,280.032745 
	C209.989166,281.738831 209.351929,283.565430 208.232712,286.235992 
	C215.698914,286.235992 221.833298,286.346069 227.958755,286.160767 
	C229.546143,286.112793 231.105560,285.140045 232.677811,284.592072 
	C231.667007,282.940521 231.038025,280.568420 229.565536,279.788147 
	C226.541672,278.185730 225.863983,276.337433 227.038116,273.335327 
	C227.561096,271.998169 227.782745,270.543152 228.148224,269.113953 
	C234.587830,269.113953 240.712357,269.113953 246.767838,269.113953 
	C249.123688,275.558319 249.012604,275.468903 244.578506,280.977386 
	C243.663589,282.113983 243.916611,284.190765 243.558563,286.253418 
	C245.849670,286.253418 247.333572,286.253418 249.742661,286.251617 
M124.933311,285.680145 
	C137.144165,280.369537 141.463196,271.301788 137.321030,258.645050 
	C136.104248,254.927109 134.103210,251.294968 131.750534,248.156555 
	C127.365417,242.306808 122.379890,236.911423 117.793922,231.206589 
	C114.049911,226.549103 110.304482,221.859726 107.043571,216.868362 
	C106.140656,215.486298 106.198814,212.027618 107.192360,211.224548 
	C108.414925,210.236404 111.725998,210.211838 112.993286,211.213913 
	C116.326271,213.849335 119.701698,216.871048 121.851974,220.462326 
	C125.348991,226.302841 129.988464,227.025909 136.589630,225.436081 
	C135.165985,219.559708 133.814957,213.806610 132.370422,208.077118 
	C131.245911,203.616867 127.066376,201.612503 123.535240,204.502792 
	C120.625473,206.884460 118.373810,206.392075 115.416962,205.371887 
	C112.768768,204.458191 109.941376,203.815750 107.151169,203.603104 
	C92.157722,202.460403 81.969818,214.482010 85.859787,229.016251 
	C86.951057,233.093628 88.929283,237.157822 91.387016,240.594131 
	C95.342911,246.125122 99.992821,251.165756 104.429527,256.345001 
	C108.433418,261.018982 112.707161,265.471283 116.542381,270.276367 
	C118.567886,272.814056 120.977798,276.159363 117.697395,279.124023 
	C114.531525,281.985168 110.544525,281.081238 107.757233,278.292206 
	C104.744629,275.277802 102.179314,271.732758 99.848404,268.140472 
	C96.444145,262.894073 93.030457,261.725372 86.582970,264.554535 
	C87.824661,270.270020 89.047562,276.087433 90.359688,281.884674 
	C91.627007,287.483948 94.444046,288.564423 99.729218,286.135986 
	C101.565269,285.292358 104.146980,284.905945 106.009361,285.499420 
	C112.090042,287.436951 118.065414,287.773102 124.933311,285.680145 
M163.613281,253.499695 
	C163.613678,260.161530 163.548218,266.824341 163.645264,273.484772 
	C163.686996,276.350281 163.445724,278.583710 160.058426,279.672302 
	C158.946640,280.029602 158.031235,282.469543 157.976517,283.991272 
	C157.951157,284.696533 160.193268,286.116180 161.423691,286.134766 
	C172.413223,286.300934 183.407532,286.298370 194.396957,286.125427 
	C195.665237,286.105469 197.880920,284.829865 197.955719,283.985687 
	C198.087265,282.500946 197.260620,279.901581 196.207474,279.525085 
	C192.264862,278.115723 192.143845,275.258118 192.153305,271.925049 
	C192.206696,253.105331 192.169327,234.285370 192.193527,215.465546 
	C192.195526,213.906189 192.425125,212.347122 192.689148,209.023590 
	C195.325897,211.321747 197.186142,212.343964 198.133347,213.916214 
	C199.394775,216.010056 200.060242,218.497437 200.777634,220.877258 
	C202.211166,225.632736 206.152603,224.181473 209.082916,223.774292 
	C210.104065,223.632385 211.263885,220.368820 211.339462,218.489868 
	C211.458099,215.539246 210.401901,212.553482 210.405136,209.583206 
	C210.409637,205.433807 208.284088,204.740295 204.715790,204.770615 
	C189.227997,204.902176 173.738007,204.754776 158.249649,204.845840 
	C142.179749,204.940308 145.254501,203.022446 143.815338,218.164200 
	C143.585083,220.586777 142.298065,223.659927 146.644867,224.258438 
	C151.981155,224.993195 154.121490,223.918747 155.225204,219.397507 
	C155.580353,217.942627 155.845795,216.465866 156.199188,215.010529 
	C157.113464,211.245544 159.300735,209.722198 163.613266,211.222534 
	C163.613266,224.925735 163.613266,238.712723 163.613281,253.499695 
M334.080200,270.523590 
	C329.467163,280.847656 328.289856,281.679749 320.384094,279.794617 
	C320.384094,258.770996 320.316986,237.640457 320.532623,216.512772 
	C320.547272,215.079193 322.724823,213.694702 323.831085,212.237747 
	C324.959198,210.752075 326.006500,209.205093 327.089203,207.684967 
	C325.485107,206.732880 323.898865,204.992920 322.274017,204.956116 
	C311.446869,204.710846 300.609985,204.746155 289.780396,204.930664 
	C288.356934,204.954941 286.956787,206.347656 285.545868,207.106598 
	C286.515808,208.768356 287.437622,210.460693 288.469055,212.083374 
	C289.515442,213.729553 291.614197,215.295914 291.633118,216.916153 
	C291.855042,235.912491 291.893829,254.914337 291.594482,273.908630 
	C291.561890,275.978210 289.140717,278.027100 287.778381,280.052551 
	C286.943268,281.294220 286.014587,282.472992 285.127930,283.679993 
	C286.345764,284.531036 287.556732,286.111359 288.782501,286.122955 
	C305.446594,286.280762 322.113831,286.301178 338.776428,286.072449 
	C340.202179,286.052917 342.382904,284.285461 342.861511,282.872253 
	C344.189514,278.951202 344.928558,274.809082 345.608643,270.705994 
	C345.770905,269.727081 344.925812,267.712006 344.320251,267.618195 
	C340.798767,267.072845 336.978333,265.964203 334.080200,270.523590 
z"/>
<path fill="#E30123" opacity="1.000000" stroke="none" 
	d="
M42.995579,150.000168 
	C42.996460,144.170334 43.157986,138.833908 42.941811,133.512848 
	C42.797489,129.960358 44.226887,128.880905 47.629322,128.944656 
	C58.603130,129.150208 56.905655,128.080902 56.985928,138.257660 
	C57.068691,148.750229 56.833630,159.248123 57.089092,169.735123 
	C57.192127,173.964874 55.681915,175.544418 51.617615,175.014389 
	C50.798843,174.907608 49.938477,174.896286 49.123821,175.018219 
	C44.377541,175.728668 42.580151,173.905243 42.900005,168.981949 
	C43.298702,162.845169 42.995636,156.662811 42.995579,150.000168 
z"/>
<path fill="#F7BFBE" opacity="1.000000" stroke="none" 
	d="
M502.972717,272.383179 
	C503.354340,274.958405 504.060883,277.954010 503.650482,280.787903 
	C498.837036,314.027252 488.370605,345.383148 471.853149,374.668152 
	C471.231293,375.770660 470.192902,376.638306 468.997253,377.681458 
	C471.322662,372.593262 474.025726,367.452484 476.671722,362.282532 
	C490.626068,335.017548 499.137299,306.140564 502.289795,275.678070 
	C502.392181,274.688599 502.613098,273.711395 502.972717,272.383179 
z"/>
<path fill="#F7BFBE" opacity="1.000000" stroke="none" 
	d="
M481.725311,145.599823 
	C484.122650,149.986969 486.894012,154.605042 488.873108,159.540787 
	C496.342865,178.170120 500.408295,197.713455 503.702820,217.425034 
	C504.129944,219.980698 503.674072,222.683929 503.389099,225.640305 
	C501.296356,215.184891 500.317963,204.162537 497.383759,193.688049 
	C492.873260,177.586578 487.019409,161.861420 481.725311,145.599823 
z"/>
<path fill="#F7BFBE" opacity="1.000000" stroke="none" 
	d="
M300.390839,3.108977 
	C304.701111,3.430786 309.539246,3.237987 313.999390,4.443655 
	C333.508026,9.717268 352.413208,16.685860 370.360992,26.069780 
	C372.224823,27.044277 373.861511,28.453278 375.666809,30.008354 
	C363.022644,24.714933 350.566254,18.385382 337.534180,13.635212 
	C325.594116,9.283075 313.032501,6.636246 300.390839,3.108977 
z"/>
<path fill="#F7BFC1" opacity="1.000000" stroke="none" 
	d="
M53.321297,96.887405 
	C55.726997,92.969315 57.947403,88.450508 61.251381,84.956276 
	C68.389610,77.406998 76.083664,70.383263 83.908371,63.147331 
	C74.053352,74.350487 63.840309,85.550842 53.321297,96.887405 
z"/>
<path fill="#F7BFBE" opacity="1.000000" stroke="none" 
	d="
M412.745026,55.782433 
	C414.682892,56.647072 417.122345,57.432377 418.748169,59.040359 
	C425.879303,66.093185 432.775085,73.384041 439.715393,80.944748 
	C430.740448,72.894539 421.806274,64.488136 412.745026,55.782433 
z"/>
<path fill="#F7BFBE" opacity="1.000000" stroke="none" 
	d="
M503.251099,230.400940 
	C503.882446,231.042816 504.856262,232.141922 504.867340,233.250656 
	C504.974640,243.988663 504.937744,254.728363 504.874969,265.467194 
	C504.870605,266.216339 504.332367,266.962311 503.708252,267.886719 
	C503.298340,255.663315 503.222595,243.262970 503.251099,230.400940 
z"/>
<path fill="#F7BFBE" opacity="1.000000" stroke="none" 
	d="
M442.696655,413.153625 
	C442.559540,414.230133 442.445892,415.759583 441.626007,416.600220 
	C434.665924,423.736206 427.592255,430.761932 420.496277,437.763580 
	C419.975372,438.277588 419.014740,438.345917 417.909424,438.498291 
	C425.837799,430.012543 434.115295,421.649933 442.696655,413.153625 
z"/>
<path fill="#F7BFBE" opacity="1.000000" stroke="none" 
	d="
M464.052002,113.342117 
	C464.733826,113.335197 465.839600,113.481293 466.138336,114.050766 
	C471.437439,124.151688 476.638397,134.304062 481.786957,144.828247 
	C475.842407,134.704819 469.971405,124.198502 464.052002,113.342117 
z"/>
<path fill="#F7BFC1" opacity="1.000000" stroke="none" 
	d="
M88.788712,59.373016 
	C94.182671,54.734379 99.900108,50.004478 105.983948,45.353703 
	C100.604294,50.049133 94.858246,54.665447 88.788712,59.373016 
z"/>
<path fill="#F7BFC1" opacity="1.000000" stroke="none" 
	d="
M113.315277,40.816326 
	C114.827614,39.158730 116.471291,37.108707 118.579575,35.816986 
	C122.533028,33.394756 126.755348,31.411354 131.270416,29.363041 
	C125.668755,33.242477 119.662529,37.004311 113.315277,40.816326 
z"/>
<path fill="#F7BFBE" opacity="1.000000" stroke="none" 
	d="
M405.604340,447.992981 
	C402.119232,450.883820 398.296448,453.845245 394.105560,456.762939 
	C397.580505,453.833954 401.423584,450.948730 405.604340,447.992981 
z"/>
<path fill="#F7BFBE" opacity="1.000000" stroke="none" 
	d="
M445.806305,88.655502 
	C448.812134,91.988136 451.914154,95.641518 454.999878,99.661629 
	C451.956573,96.344322 448.929535,92.660278 445.806305,88.655502 
z"/>
<path fill="#F7BFBE" opacity="1.000000" stroke="none" 
	d="
M399.083191,45.360386 
	C401.586487,46.821682 404.249573,48.575916 406.960754,50.676228 
	C404.420197,49.232647 401.831604,47.442986 399.083191,45.360386 
z"/>
<path fill="#F7BFBE" opacity="1.000000" stroke="none" 
	d="
M380.851074,33.498383 
	C383.742126,34.918468 386.819458,36.627460 389.945862,38.683914 
	C387.009125,37.283344 384.023224,35.535316 380.851074,33.498383 
z"/>
<path fill="#FAC3C6" opacity="1.000000" stroke="none" 
	d="
M133.298401,469.401245 
	C130.703033,468.333740 127.906059,466.990173 125.073547,465.289948 
	C127.724266,466.330566 130.410538,467.727875 133.298401,469.401245 
z"/>
<path fill="#FAC3C6" opacity="1.000000" stroke="none" 
	d="
M68.923874,419.677551 
	C66.747276,417.794891 64.492226,415.586517 62.299049,413.019226 
	C64.522423,414.890778 66.683922,417.121277 68.923874,419.677551 
z"/>
<path fill="#F7BFBE" opacity="1.000000" stroke="none" 
	d="
M468.381714,377.867279 
	C467.207306,380.331696 465.746094,382.956879 463.931396,385.612183 
	C465.083588,383.104187 466.589264,380.566132 468.381714,377.867279 
z"/>
<path fill="#FAC3C6" opacity="1.000000" stroke="none" 
	d="
M94.209381,443.329773 
	C92.248055,442.045532 90.157967,440.465149 88.020164,438.556702 
	C90.008499,439.830292 92.044556,441.431946 94.209381,443.329773 
z"/>
<path fill="#FAC3C6" opacity="1.000000" stroke="none" 
	d="
M25.965809,356.644104 
	C24.721560,354.714172 23.479338,352.419098 22.361153,349.720825 
	C23.646070,351.638092 24.806955,353.958527 25.965809,356.644104 
z"/>
<path fill="#F7BFBE" opacity="1.000000" stroke="none" 
	d="
M457.169891,103.287766 
	C458.760956,105.057602 460.402039,107.163139 462.025574,109.631432 
	C460.411987,107.870613 458.815979,105.747047 457.169891,103.287766 
z"/>
<path fill="#FAC3C6" opacity="1.000000" stroke="none" 
	d="
M34.935024,373.678162 
	C33.626026,371.932190 32.292259,369.836548 30.984062,367.361359 
	C32.309837,369.097351 33.610046,371.212952 34.935024,373.678162 
z"/>
<path fill="#F7BFC1" opacity="1.000000" stroke="none" 
	d="
M42.615005,112.100586 
	C43.430813,110.307846 44.522892,108.346306 45.963394,106.311043 
	C45.171638,108.135475 44.031460,110.033638 42.615005,112.100586 
z"/>
<path fill="#FAC3C6" opacity="1.000000" stroke="none" 
	d="
M113.831665,457.703186 
	C112.031212,456.880493 110.069229,455.771820 108.070145,454.311340 
	C109.912079,455.112122 111.791115,456.264679 113.831665,457.703186 
z"/>
<path fill="#F7BFC1" opacity="1.000000" stroke="none" 
	d="
M106.699646,45.345161 
	C108.127869,43.997787 109.887108,42.577477 112.019356,41.189934 
	C110.605125,42.572540 108.817894,43.922382 106.699646,45.345161 
z"/>
<path fill="#FAC3C6" opacity="1.000000" stroke="none" 
	d="
M106.101486,452.460480 
	C104.532059,451.711060 102.822098,450.668945 101.080185,449.273956 
	C102.685806,450.003296 104.323380,451.085510 106.101486,452.460480 
z"/>
<path fill="#F7BFBE" opacity="1.000000" stroke="none" 
	d="
M417.118408,438.596710 
	C416.069183,439.900635 414.718597,441.309723 413.012695,442.660950 
	C414.043945,441.302673 415.430511,440.002258 417.118408,438.596710 
z"/>
<path fill="#FAC3C6" opacity="1.000000" stroke="none" 
	d="
M61.369553,411.238098 
	C60.034561,410.118195 58.608875,408.679199 57.218502,406.868958 
	C58.595497,407.971466 59.937176,409.445221 61.369553,411.238098 
z"/>
<path fill="#F7BFBE" opacity="1.000000" stroke="none" 
	d="
M452.593292,401.022369 
	C451.797821,402.541748 450.705872,404.201050 449.257385,405.893799 
	C450.032806,404.338928 451.164825,402.750610 452.593292,401.022369 
z"/>
<path fill="#FAC3C6" opacity="1.000000" stroke="none" 
	d="
M44.961929,389.665619 
	C43.700691,388.229431 42.381329,386.459839 41.042511,384.326630 
	C42.316639,385.752777 43.610226,387.542480 44.961929,389.665619 
z"/>
<path fill="#F7BFC1" opacity="1.000000" stroke="none" 
	d="
M46.582108,106.122360 
	C47.305027,104.540565 48.318428,102.815491 49.681622,101.046768 
	C48.978470,102.661774 47.925529,104.320435 46.582108,106.122360 
z"/>
<path fill="#F7BFBE" opacity="1.000000" stroke="none" 
	d="
M447.364563,407.618774 
	C446.655212,408.946777 445.646759,410.420197 444.276794,411.928589 
	C444.965332,410.563721 446.015411,409.163940 447.364563,407.618774 
z"/>
<path fill="#F7BFBE" opacity="1.000000" stroke="none" 
	d="
M375.866882,30.621449 
	C377.104218,30.954138 378.499420,31.563671 379.957214,32.523384 
	C378.688141,32.215137 377.356476,31.556713 375.866882,30.621449 
z"/>
<path fill="#FAC3C6" opacity="1.000000" stroke="none" 
	d="
M124.895401,464.668701 
	C123.431862,464.171661 121.798767,463.390839 120.114960,462.260193 
	C121.618111,462.735260 123.171967,463.560120 124.895401,464.668701 
z"/>
<path fill="#FAC3C6" opacity="1.000000" stroke="none" 
	d="
M56.826103,405.699280 
	C55.678226,404.792816 54.465382,403.572052 53.324482,401.999878 
	C54.517994,402.893982 55.639561,404.139465 56.826103,405.699280 
z"/>
<path fill="#F7BFC1" opacity="1.000000" stroke="none" 
	d="
M35.312325,123.871635 
	C35.796501,122.416306 36.560513,120.786873 37.666092,119.093399 
	C37.202496,120.585419 36.397327,122.141472 35.312325,123.871635 
z"/>
<path fill="#FAC3C6" opacity="1.000000" stroke="none" 
	d="
M37.911922,378.653137 
	C37.013992,377.741913 36.080666,376.497803 35.186501,374.877991 
	C36.109283,375.774963 36.992905,377.047607 37.911922,378.653137 
z"/>
<path fill="#F7BFBE" opacity="1.000000" stroke="none" 
	d="
M408.835907,52.614662 
	C409.986511,53.124599 411.261078,53.929115 412.558899,55.086922 
	C411.374756,54.596554 410.167328,53.752895 408.835907,52.614662 
z"/>
<path fill="#FAC3C6" opacity="1.000000" stroke="none" 
	d="
M49.893318,396.697235 
	C48.961758,395.898132 47.976711,394.782623 47.016987,393.307770 
	C47.974819,394.092560 48.907326,395.236694 49.893318,396.697235 
z"/>
<path fill="#F7BFBE" opacity="1.000000" stroke="none" 
	d="
M411.144836,443.596130 
	C410.419495,444.577148 409.394440,445.647034 408.015259,446.658997 
	C408.722504,445.629059 409.783813,444.657043 411.144836,443.596130 
z"/>
<path fill="#FAC3C6" opacity="1.000000" stroke="none" 
	d="
M72.822006,423.742859 
	C71.930946,423.269928 70.957108,422.496643 69.984726,421.368134 
	C70.903854,421.822754 71.821541,422.632629 72.822006,423.742859 
z"/>
<path fill="#F7BFBE" opacity="1.000000" stroke="none" 
	d="
M396.152069,43.266304 
	C396.949615,43.460968 397.889893,43.934181 398.886444,44.743782 
	C398.060089,44.568398 397.177429,44.056625 396.152069,43.266304 
z"/>
<path fill="#FAC3C6" opacity="1.000000" stroke="none" 
	d="
M80.331253,431.182953 
	C79.610527,430.907104 78.791382,430.351318 77.960815,429.438171 
	C78.710541,429.688202 79.471680,430.295624 80.331253,431.182953 
z"/>
<path fill="#FAC3C6" opacity="1.000000" stroke="none" 
	d="
M53.347778,401.361206 
	C52.661713,400.931152 51.915962,400.190216 51.209007,399.100952 
	C51.927902,399.518494 52.607998,400.284424 53.347778,401.361206 
z"/>
<path fill="#F7BFBE" opacity="1.000000" stroke="none" 
	d="
M454.740906,398.156250 
	C454.533844,398.957886 454.042450,399.886871 453.211700,400.859070 
	C453.400421,400.029388 453.928528,399.156525 454.740906,398.156250 
z"/>
<path fill="#F7BFBE" opacity="1.000000" stroke="none" 
	d="
M393.463135,456.739258 
	C392.993347,457.401978 392.207520,458.109131 391.078033,458.764008 
	C391.538574,458.069061 392.342834,457.426392 393.463135,456.739258 
z"/>
<path fill="#FAC3C6" opacity="1.000000" stroke="none" 
	d="
M116.869125,459.696411 
	C116.060959,459.536407 115.101456,459.103180 114.077599,458.335754 
	C114.914757,458.475433 115.816277,458.949310 116.869125,459.696411 
z"/>
<path fill="#F7BFC1" opacity="1.000000" stroke="none" 
	d="
M40.614376,115.132385 
	C40.783485,114.334923 41.219872,113.379303 41.994484,112.349014 
	C41.849022,113.174301 41.365341,114.074265 40.614376,115.132385 
z"/>
<path fill="#FAC3C6" opacity="1.000000" stroke="none" 
	d="
M41.005920,383.666748 
	C40.365162,383.190338 39.695629,382.398468 39.059605,381.255127 
	C39.721123,381.719513 40.349136,382.535431 41.005920,383.666748 
z"/>
<path fill="#FAC3C6" opacity="1.000000" stroke="none" 
	d="
M139.154510,472.531006 
	C138.282028,472.449036 137.226303,472.092072 136.073669,471.389709 
	C136.974930,471.448212 137.973114,471.852142 139.154510,472.531006 
z"/>
<path fill="#F7BFBE" opacity="1.000000" stroke="none" 
	d="
M462.024200,110.309372 
	C462.682556,110.764671 463.358276,111.536934 464.020935,112.653511 
	C463.352417,112.207329 462.696991,111.416832 462.024200,110.309372 
z"/>
<path fill="#FAC3C6" opacity="1.000000" stroke="none" 
	d="
M31.021149,366.658752 
	C30.376501,366.095337 29.737545,365.195953 29.163147,363.919800 
	C29.827417,364.469604 30.427128,365.396210 31.021149,366.658752 
z"/>
<path fill="#FAC3C6" opacity="1.000000" stroke="none" 
	d="
M28.367413,361.472412 
	C27.779709,361.009491 27.167259,360.221375 26.754185,359.226562 
	C27.416595,359.728973 27.879631,360.438080 28.367413,361.472412 
z"/>
<path fill="#FAC3C6" opacity="1.000000" stroke="none" 
	d="
M98.211197,446.518188 
	C97.599991,446.420135 96.870682,446.032532 96.075348,445.313599 
	C96.703918,445.397766 97.398499,445.813202 98.211197,446.518188 
z"/>
<path fill="#F7BFC1" opacity="1.000000" stroke="none" 
	d="
M51.595520,99.169632 
	C51.671486,98.573967 52.021023,97.854439 52.696999,97.073898 
	C52.638653,97.690521 52.253872,98.368149 51.595520,99.169632 
z"/>
<path fill="#FAC3C6" opacity="1.000000" stroke="none" 
	d="
M84.089172,434.599670 
	C83.498840,434.468384 82.810616,434.044617 82.068436,433.294769 
	C82.673409,433.414825 83.332344,433.860992 84.089172,434.599670 
z"/>
<path fill="#FAC3C6" opacity="1.000000" stroke="none" 
	d="
M76.311897,427.256714 
	C75.715691,427.121674 75.026154,426.714539 74.393425,425.953583 
	C75.039680,426.061371 75.629120,426.523010 76.311897,427.256714 
z"/>
<path fill="#F7BFBE" opacity="1.000000" stroke="none" 
	d="
M455.016266,100.326553 
	C455.585663,100.592117 456.199127,101.171555 456.788330,102.100632 
	C456.196167,101.846992 455.628235,101.243713 455.016266,100.326553 
z"/>
<path fill="#F7BFBE" opacity="1.000000" stroke="none" 
	d="
M442.985718,85.355316 
	C443.549347,85.563072 444.171692,86.065765 444.783813,86.900085 
	C444.197235,86.704567 443.620819,86.177414 442.985718,85.355316 
z"/>
<path fill="#F7BFBE" opacity="1.000000" stroke="none" 
	d="
M461.450745,388.697083 
	C461.380127,389.320251 461.025848,390.084717 460.333954,390.921265 
	C460.386566,390.275024 460.776825,389.556702 461.450745,388.697083 
z"/>
<path fill="#F7BFBE" opacity="1.000000" stroke="none" 
	d="
M459.389526,391.631378 
	C459.338928,392.265259 459.010132,393.053955 458.340210,393.921631 
	C458.369812,393.262451 458.740570,392.524323 459.389526,391.631378 
z"/>
<path fill="#F7BFBE" opacity="1.000000" stroke="none" 
	d="
M463.306671,385.797821 
	C463.286652,386.391968 463.010040,387.132660 462.412720,387.948578 
	C462.411377,387.330688 462.730713,386.637512 463.306671,385.797821 
z"/>
<path fill="#F7BFBE" opacity="1.000000" stroke="none" 
	d="
M456.514954,395.771423 
	C456.427887,396.379791 456.058624,397.124878 455.359558,397.946198 
	C455.430756,397.317657 455.831757,396.612915 456.514954,395.771423 
z"/>
<path fill="#F7BFBE" opacity="1.000000" stroke="none" 
	d="
M393.164368,41.252785 
	C393.565002,41.221359 394.109192,41.450176 394.770447,41.963333 
	C394.360992,42.002792 393.834442,41.757908 393.164368,41.252785 
z"/>
<path fill="#FAC3C6" opacity="1.000000" stroke="none" 
	d="
M107.906120,453.696075 
	C107.497604,453.735382 106.956474,453.507080 106.296555,452.994995 
	C106.709679,452.950287 107.241592,453.189392 107.906120,453.696075 
z"/>
<path fill="#F7BFC1" opacity="1.000000" stroke="none" 
	d="
M38.287094,118.855743 
	C38.231308,118.459435 38.435410,117.920280 38.905632,117.241203 
	C38.963497,117.638489 38.755241,118.175697 38.287094,118.855743 
z"/>
<path fill="#F7BFC1" opacity="1.000000" stroke="none" 
	d="
M39.413445,116.995758 
	C39.356644,116.576859 39.562023,116.018143 40.066479,115.358139 
	C40.135582,115.789879 39.905602,116.322906 39.413445,116.995758 
z"/>
<path fill="#FAC3C6" opacity="1.000000" stroke="none" 
	d="
M100.947449,448.659088 
	C100.514053,448.659088 99.951225,448.372620 99.309052,447.761658 
	C99.759140,447.748993 100.288582,448.060791 100.947449,448.659088 
z"/>
<path fill="#F7BFBE" opacity="1.000000" stroke="none" 
	d="
M407.382019,446.667175 
	C407.292206,447.041931 406.918976,447.477386 406.235748,447.924255 
	C406.316711,447.533081 406.707672,447.130493 407.382019,446.667175 
z"/>
<path fill="#FAC3C6" opacity="1.000000" stroke="none" 
	d="
M95.907341,444.711823 
	C95.487747,444.728455 94.957344,444.468414 94.354965,443.902985 
	C94.787514,443.876770 95.292023,444.155975 95.907341,444.711823 
z"/>
<path fill="#FAC3C6" opacity="1.000000" stroke="none" 
	d="
M119.939835,461.661194 
	C119.522881,461.718811 118.961609,461.511261 118.274643,461.016357 
	C118.697792,460.951355 119.246651,461.173706 119.939835,461.661194 
z"/>
<path fill="#FAC3C6" opacity="1.000000" stroke="none" 
	d="
M81.933731,432.714722 
	C81.523155,432.699341 81.014603,432.416290 80.483398,431.822235 
	C80.919083,431.823151 81.377419,432.135101 81.933731,432.714722 
z"/>
<path fill="#FAC3C6" opacity="1.000000" stroke="none" 
	d="
M77.842972,428.774536 
	C77.426949,428.752563 76.934258,428.454987 76.420105,427.850922 
	C76.854523,427.862610 77.310417,428.180786 77.842972,428.774536 
z"/>
<path fill="#FAC3C6" opacity="1.000000" stroke="none" 
	d="
M74.362381,425.335632 
	C73.974548,425.303864 73.508110,424.999817 72.998787,424.396118 
	C73.398521,424.418762 73.841141,424.741058 74.362381,425.335632 
z"/>
<path fill="#F7BFBE" opacity="1.000000" stroke="none" 
	d="
M441.589233,83.783569 
	C441.968384,83.828583 442.430389,84.140213 442.913391,84.760590 
	C442.513641,84.729622 442.092834,84.389908 441.589233,83.783569 
z"/>
<path fill="#FAC3C6" opacity="1.000000" stroke="none" 
	d="
M118.125900,460.554321 
	C117.920555,460.675873 117.604370,460.551727 117.157776,460.200714 
	C117.356598,460.085419 117.685829,460.197021 118.125900,460.554321 
z"/>
<path fill="#F7BFBE" opacity="1.000000" stroke="none" 
	d="
M390.607513,39.556870 
	C390.820129,39.435665 391.198669,39.566563 391.725586,39.968010 
	C391.507111,40.095364 391.140289,39.952171 390.607513,39.556870 
z"/>
<path fill="#F7BFC1" opacity="1.000000" stroke="none" 
	d="
M50.597137,100.425446 
	C50.476757,100.192970 50.623371,99.830498 51.053596,99.355301 
	C51.179512,99.593529 51.021820,99.944489 50.597137,100.425446 
z"/>
<path fill="#F7BFC1" opacity="1.000000" stroke="none" 
	d="
M87.623184,60.326077 
	C87.545166,60.082172 87.709679,59.785015 88.147064,59.486397 
	C88.367310,59.840477 88.182571,60.103107 87.623184,60.326077 
z"/>
<path fill="#FAC3C6" opacity="1.000000" stroke="none" 
	d="
M135.324371,470.540161 
	C135.120758,470.681610 134.754959,470.573547 134.217834,470.230225 
	C134.418396,470.093475 134.790283,470.192017 135.324371,470.540161 
z"/>
<path fill="#FAC3C6" opacity="1.000000" stroke="none" 
	d="
M39.081451,380.644348 
	C38.845566,380.659882 38.580311,380.383453 38.293961,379.813110 
	C38.532600,379.796906 38.792343,380.074677 39.081451,380.644348 
z"/>
<path fill="#F7BFBE" opacity="1.000000" stroke="none" 
	d="
M407.559143,51.586342 
	C407.792816,51.467846 408.153564,51.617455 408.627869,52.048714 
	C408.389709,52.171730 408.037933,52.013088 407.559143,51.586342 
z"/>
<path fill="#FAC3C6" opacity="1.000000" stroke="none" 
	d="
M47.026550,392.700775 
	C46.798512,392.740479 46.541470,392.511719 46.246784,392.020416 
	C46.471943,391.982697 46.734741,392.207489 47.026550,392.700775 
z"/>
<path fill="#FAC3C6" opacity="1.000000" stroke="none" 
	d="
M46.200802,391.525452 
	C45.956173,391.558502 45.652142,391.291504 45.310814,390.711914 
	C45.562813,390.674652 45.852108,390.950012 46.200802,391.525452 
z"/>
<path fill="#F7BFBE" opacity="1.000000" stroke="none" 
	d="
M440.676941,82.615257 
	C440.916321,82.553490 441.193054,82.727234 441.454224,83.163338 
	C441.100067,83.356514 440.858551,83.164871 440.676941,82.615257 
z"/>
<path fill="#F7BFBE" opacity="1.000000" stroke="none" 
	d="
M412.401215,442.670959 
	C412.458008,442.907745 412.281372,443.182556 411.843140,443.437134 
	C411.663666,443.087128 411.859100,442.851166 412.401215,442.670959 
z"/>
<path fill="#F7BFBE" opacity="1.000000" stroke="none" 
	d="
M444.807129,87.455124 
	C445.037903,87.388733 445.323486,87.578209 445.648438,88.031555 
	C445.412506,88.100616 445.137207,87.905800 444.807129,87.455124 
z"/>
<path fill="#FAC3C6" opacity="1.000000" stroke="none" 
	d="
M86.237015,436.554718 
	C86.013092,436.644379 85.679832,436.464264 85.240829,436.012085 
	C85.465942,435.921661 85.796814,436.103302 86.237015,436.554718 
z"/>
<path fill="#FAC3C6" opacity="1.000000" stroke="none" 
	d="
M51.219742,398.520447 
	C50.967449,398.569916 50.658772,398.323883 50.305592,397.774872 
	C50.561848,397.722900 50.862602,397.973907 51.219742,398.520447 
z"/>
<path fill="#F7BFC1" opacity="1.000000" stroke="none" 
	d="
M86.543274,61.264671 
	C86.468353,61.025204 86.648087,60.728146 87.100754,60.403824 
	C87.181763,60.653397 86.989838,60.930237 86.543274,61.264671 
z"/>
<path fill="#F7BFC1" opacity="1.000000" stroke="none" 
	d="
M85.458572,62.264919 
	C85.380333,62.026913 85.574104,61.715363 86.046860,61.339241 
	C86.127426,61.580235 85.929008,61.885803 85.458572,62.264919 
z"/>
<path fill="#F7BFBE" opacity="1.000000" stroke="none" 
	d="
M448.686432,405.990662 
	C448.779358,406.190430 448.628540,406.485229 448.249298,406.892914 
	C448.161469,406.699127 448.302094,406.392426 448.686432,405.990662 
z"/>
<path fill="#FAC3C6" opacity="1.000000" stroke="none" 
	d="
M69.932365,420.753418 
	C69.711708,420.831757 69.438141,420.651794 69.080627,420.234741 
	C69.290939,420.163483 69.585197,420.329285 69.932365,420.753418 
z"/>
<path fill="#F7BFBE" opacity="1.000000" stroke="none" 
	d="
M439.733643,81.553375 
	C439.976349,81.472000 440.270172,81.644821 440.592773,82.084930 
	C440.342651,82.170670 440.063660,81.989120 439.733643,81.553375 
z"/>
<path fill="#FAC3C6" opacity="1.000000" stroke="none" 
	d="
M62.322823,412.430664 
	C62.072376,412.502899 61.777130,412.318695 61.472702,411.857788 
	C61.735020,411.778809 62.006519,411.976501 62.322823,412.430664 
z"/>
<path fill="#302F2D" opacity="1.000000" stroke="none" 
	d="
M355.178040,243.999939 
	C355.176422,235.175156 355.374695,226.842163 355.033173,218.531342 
	C354.947388,216.443802 353.045837,214.464020 352.133972,212.367218 
	C351.344757,210.552399 350.420166,208.660095 350.322876,206.762726 
	C350.293182,206.183563 352.797913,204.931274 354.156097,204.910400 
	C364.642944,204.749359 375.134216,204.745468 385.621216,204.895248 
	C386.990326,204.914810 389.550629,206.239868 389.492249,206.695694 
	C389.251190,208.579208 388.700684,211.306625 387.372375,211.989334 
	C384.310364,213.563049 383.502594,215.602036 383.579468,218.760941 
	C383.740662,225.386703 383.628357,232.019119 383.628357,238.648819 
	C384.047333,238.845093 384.466339,239.041367 384.885315,239.237640 
	C390.577209,230.752686 396.269135,222.267731 402.113037,213.556198 
	C400.422516,212.372818 399.059814,211.831039 398.370941,210.826981 
	C397.599854,209.703110 396.851990,207.981293 397.195374,206.855637 
	C397.479553,205.924072 399.348083,204.949997 400.544373,204.911209 
	C406.531830,204.716995 412.534698,204.689804 418.518250,204.938202 
	C419.734314,204.988663 421.903351,206.535858 421.859833,207.290833 
	C421.774078,208.778641 420.740356,211.124191 419.583954,211.490692 
	C411.721832,213.982407 409.741852,221.942917 404.735046,227.034088 
	C404.175171,227.603409 404.592926,229.534393 405.042572,230.635818 
	C411.010925,245.256058 416.998810,259.869537 423.184967,274.398193 
	C423.959442,276.217102 426.117706,277.399719 427.226807,279.137543 
	C428.184326,280.637909 429.021210,282.521515 428.975433,284.210327 
	C428.956177,284.920532 426.540161,286.121857 425.194031,286.149719 
	C416.539917,286.328583 407.876984,286.375580 399.225006,286.152832 
	C397.079956,286.097595 394.964691,284.887970 392.835754,284.208984 
	C393.850464,282.068848 394.865204,279.928741 395.879944,277.788666 
	C396.389801,277.833771 396.899658,277.878876 397.409515,277.923981 
	C393.831818,269.491455 390.254120,261.058899 386.097961,251.262894 
	C384.852783,253.922974 383.790375,255.166138 383.757050,256.436340 
	C383.586761,262.923401 383.524963,269.424561 383.816589,275.903137 
	C383.875183,277.204712 385.807434,278.334076 386.553833,279.716675 
	C387.338409,281.169922 388.164276,282.848969 388.102386,284.394531 
	C388.075928,285.054810 385.852814,286.140808 384.615662,286.157990 
	C374.294922,286.301392 363.969971,286.320251 353.650452,286.138397 
	C352.392365,286.116211 350.186127,284.748291 350.130432,283.892639 
	C350.034210,282.414795 350.915527,279.946564 352.033997,279.494202 
	C355.104858,278.252289 355.207703,276.075104 355.196564,273.470184 
	C355.155182,263.813568 355.178802,254.156723 355.178040,243.999939 
z"/>
<path fill="#302F2D" opacity="1.000000" stroke="none" 
	d="
M249.280060,286.252502 
	C247.333572,286.253418 245.849670,286.253418 243.558563,286.253418 
	C243.916611,284.190765 243.663589,282.113983 244.578506,280.977386 
	C249.012604,275.468903 249.123688,275.558319 246.767838,269.113953 
	C240.712357,269.113953 234.587830,269.113953 228.148224,269.113953 
	C227.782745,270.543152 227.561096,271.998169 227.038116,273.335327 
	C225.863983,276.337433 226.541672,278.185730 229.565536,279.788147 
	C231.038025,280.568420 231.667007,282.940521 232.677826,284.592072 
	C231.105560,285.140045 229.546143,286.112793 227.958755,286.160767 
	C221.833298,286.346069 215.698914,286.235992 208.232712,286.235992 
	C209.351929,283.565430 209.989166,281.738831 210.861954,280.032745 
	C212.242523,277.334076 214.427567,274.879791 215.147049,272.037292 
	C219.642471,254.276840 223.799103,236.430862 228.138245,218.630356 
	C228.849731,215.711609 229.444336,213.265167 225.879166,211.505249 
	C224.825058,210.984909 224.195496,208.288589 224.498108,206.821869 
	C224.684189,205.919937 226.994049,204.917526 228.370026,204.888260 
	C236.532074,204.714615 244.699890,204.804611 252.865753,204.821182 
	C259.782227,204.835220 260.355774,205.248337 261.905518,212.042114 
	C266.203888,230.884995 270.475800,249.733978 274.708252,268.591766 
	C275.695923,272.992462 276.357208,277.395264 280.642792,280.241516 
	C281.543823,280.839935 281.831787,283.347137 281.393402,284.630035 
	C281.101288,285.484985 279.026337,286.159149 277.739014,286.177063 
	C268.408356,286.307220 259.075104,286.249725 249.280060,286.252502 
M237.154465,227.336639 
	C234.558823,239.074188 231.963181,250.811737 229.305099,262.831604 
	C235.290604,262.831604 240.523712,262.831604 246.153168,262.831604 
	C244.146606,253.438171 242.276688,244.368225 240.240677,235.335739 
	C239.586563,232.433945 238.494171,229.630951 237.154465,227.336639 
z"/>
<path fill="#302F2E" opacity="1.000000" stroke="none" 
	d="
M124.551949,285.818878 
	C118.065414,287.773102 112.090042,287.436951 106.009361,285.499420 
	C104.146980,284.905945 101.565269,285.292358 99.729218,286.135986 
	C94.444046,288.564423 91.627007,287.483948 90.359688,281.884674 
	C89.047562,276.087433 87.824661,270.270020 86.582970,264.554535 
	C93.030457,261.725372 96.444145,262.894073 99.848404,268.140472 
	C102.179314,271.732758 104.744629,275.277802 107.757233,278.292206 
	C110.544525,281.081238 114.531525,281.985168 117.697395,279.124023 
	C120.977798,276.159363 118.567886,272.814056 116.542381,270.276367 
	C112.707161,265.471283 108.433418,261.018982 104.429527,256.345001 
	C99.992821,251.165756 95.342911,246.125122 91.387016,240.594131 
	C88.929283,237.157822 86.951057,233.093628 85.859787,229.016251 
	C81.969818,214.482010 92.157722,202.460403 107.151169,203.603104 
	C109.941376,203.815750 112.768768,204.458191 115.416962,205.371887 
	C118.373810,206.392075 120.625473,206.884460 123.535240,204.502792 
	C127.066376,201.612503 131.245911,203.616867 132.370422,208.077118 
	C133.814957,213.806610 135.165985,219.559708 136.589630,225.436081 
	C129.988464,227.025909 125.348991,226.302841 121.851974,220.462326 
	C119.701698,216.871048 116.326271,213.849335 112.993286,211.213913 
	C111.725998,210.211838 108.414925,210.236404 107.192360,211.224548 
	C106.198814,212.027618 106.140656,215.486298 107.043571,216.868362 
	C110.304482,221.859726 114.049911,226.549103 117.793922,231.206589 
	C122.379890,236.911423 127.365417,242.306808 131.750534,248.156555 
	C134.103210,251.294968 136.104248,254.927109 137.321030,258.645050 
	C141.463196,271.301788 137.144165,280.369537 124.551949,285.818878 
z"/>
<path fill="#2E2D2C" opacity="1.000000" stroke="none" 
	d="
M163.613281,252.999695 
	C163.613266,238.712723 163.613266,224.925735 163.613266,211.222534 
	C159.300735,209.722198 157.113464,211.245544 156.199188,215.010529 
	C155.845795,216.465866 155.580353,217.942627 155.225204,219.397507 
	C154.121490,223.918747 151.981155,224.993195 146.644867,224.258438 
	C142.298065,223.659927 143.585083,220.586777 143.815338,218.164200 
	C145.254501,203.022446 142.179749,204.940308 158.249649,204.845840 
	C173.738007,204.754776 189.227997,204.902176 204.715790,204.770615 
	C208.284088,204.740295 210.409637,205.433807 210.405136,209.583206 
	C210.401901,212.553482 211.458099,215.539246 211.339462,218.489868 
	C211.263885,220.368820 210.104065,223.632385 209.082916,223.774292 
	C206.152603,224.181473 202.211166,225.632736 200.777634,220.877258 
	C200.060242,218.497437 199.394775,216.010056 198.133347,213.916214 
	C197.186142,212.343964 195.325897,211.321747 192.689148,209.023590 
	C192.425125,212.347122 192.195526,213.906189 192.193527,215.465546 
	C192.169327,234.285370 192.206696,253.105331 192.153305,271.925049 
	C192.143845,275.258118 192.264862,278.115723 196.207474,279.525085 
	C197.260620,279.901581 198.087265,282.500946 197.955719,283.985687 
	C197.880920,284.829865 195.665237,286.105469 194.396957,286.125427 
	C183.407532,286.298370 172.413223,286.300934 161.423691,286.134766 
	C160.193268,286.116180 157.951157,284.696533 157.976517,283.991272 
	C158.031235,282.469543 158.946640,280.029602 160.058426,279.672302 
	C163.445724,278.583710 163.686996,276.350281 163.645264,273.484772 
	C163.548218,266.824341 163.613678,260.161530 163.613281,252.999695 
z"/>
<path fill="#2E2D2B" opacity="1.000000" stroke="none" 
	d="
M334.225220,270.164978 
	C336.978333,265.964203 340.798767,267.072845 344.320251,267.618195 
	C344.925812,267.712006 345.770905,269.727081 345.608643,270.705994 
	C344.928558,274.809082 344.189514,278.951202 342.861511,282.872253 
	C342.382904,284.285461 340.202179,286.052917 338.776428,286.072449 
	C322.113831,286.301178 305.446594,286.280762 288.782501,286.122955 
	C287.556732,286.111359 286.345764,284.531036 285.127930,283.679993 
	C286.014587,282.472992 286.943268,281.294220 287.778381,280.052551 
	C289.140717,278.027100 291.561890,275.978210 291.594482,273.908630 
	C291.893829,254.914337 291.855042,235.912491 291.633118,216.916153 
	C291.614197,215.295914 289.515442,213.729553 288.469055,212.083374 
	C287.437622,210.460693 286.515808,208.768356 285.545868,207.106598 
	C286.956787,206.347656 288.356934,204.954941 289.780396,204.930664 
	C300.609985,204.746155 311.446869,204.710846 322.274017,204.956116 
	C323.898865,204.992920 325.485107,206.732880 327.089203,207.684967 
	C326.006500,209.205093 324.959198,210.752075 323.831085,212.237747 
	C322.724823,213.694702 320.547272,215.079193 320.532623,216.512772 
	C320.316986,237.640457 320.384094,258.770996 320.384094,279.794617 
	C328.289856,281.679749 329.467163,280.847656 334.225220,270.164978 
z"/>
<path fill="#F4F3F2" opacity="1.000000" stroke="none" 
	d="
M237.378387,227.059692 
	C238.494171,229.630951 239.586563,232.433945 240.240677,235.335739 
	C242.276688,244.368225 244.146606,253.438171 246.153168,262.831604 
	C240.523712,262.831604 235.290604,262.831604 229.305099,262.831604 
	C231.963181,250.811737 234.558823,239.074188 237.378387,227.059692 
z"/>
</svg>