<?xml version="1.0" standalone="no"?>
<!DOCTYPE svg PUBLIC "-//W3C//DTD SVG 20010904//EN"
 "http://www.w3.org/TR/2001/REC-SVG-20010904/DTD/svg10.dtd">
<svg version="1.0" xmlns="http://www.w3.org/2000/svg"
 width="152.000000pt" height="85.000000pt" viewBox="0 0 180.000000 85.000000"
 preserveAspectRatio="xMidYMid meet">
<metadata>
Created by potrace 1.10, written by Peter Selinger 2001-2011
</metadata>
<g transform="translate(0.000000,85.000000) scale(0.100000,-0.100000)"
fill="#000000" stroke="none">
<path d="M475 720 c-4 -7 -19 -10 -35 -6 -44 8 -82 -27 -80 -73 4 -78 4 -79
-42 -34 -54 51 -87 60 -118 31 -21 -20 -22 -27 -16 -92 15 -170 26 -238 41
-262 31 -48 86 -30 106 34 l11 38 41 -42 c35 -34 51 -43 95 -49 62 -8 92 10
92 56 0 15 4 30 9 33 16 10 99 -25 139 -60 48 -41 74 -43 101 -8 23 30 26 68
15 260 -8 135 -20 157 -86 161 -165 11 -197 14 -229 19 -23 4 -39 2 -44 -6z
m56 -30 c5 0 9 -9 9 -21 0 -19 1 -19 22 -5 45 32 158 13 158 -26 0 -35 -19
-56 -95 -104 -41 -26 -75 -49 -75 -50 0 -1 41 -22 90 -45 63 -30 90 -48 90
-60 0 -33 -19 -30 -111 15 l-91 44 4 -71 c3 -69 2 -72 -20 -72 l-23 0 0 198
c0 108 1 200 1 203 0 3 7 3 16 0 9 -3 20 -6 25 -6z m-86 -29 c13 -41 22 -336
11 -343 -21 -14 -34 -8 -53 27 -20 38 -124 177 -129 172 -2 -1 4 -46 13 -99
17 -104 14 -128 -16 -128 -22 0 -27 10 -30 65 -1 22 -7 91 -14 153 -8 68 -10
115 -4 119 17 10 60 -32 124 -121 l63 -88 0 59 c0 32 -5 87 -10 122 -5 36 -7
68 -4 73 10 15 43 8 49 -11z m349 -68 c3 -42 6 -125 6 -185 0 -89 -3 -110 -16
-115 -8 -3 -19 -2 -23 3 -5 5 -11 91 -14 192 l-6 182 23 0 c22 0 23 -5 30 -77z
m-94 -93 c0 -43 -6 -48 -36 -26 -19 15 -18 15 6 40 14 14 26 25 28 25 1 1 2
-17 2 -39z"/>
<path d="M594 629 c-38 -11 -49 -24 -57 -67 l-7 -33 48 26 c26 14 58 35 72 45
21 17 23 21 10 30 -18 11 -24 11 -66 -1z"/>
</g>
</svg>
